<svg id="Layer_1" data-name="Layer 1" xmlns="http://www.w3.org/2000/svg" viewBox="0 0 340.89 423.65"><defs><style>.cls-1{fill:#414042;}.cls-2{fill:#006838;}.cls-3{fill:#fff;}</style></defs><title>maemaestore</title><path class="cls-1" d="M174.72,2.63,153.9,18.36,137.74,30.58C132.16,34.79,126.6,39,121,43.22c-5.17,3.87-10.4,7.7-15.56,11.58Q96.8,61.33,88.22,67.9c-4.29,3.3-8.42,6.72-12.77,10C69.23,82.49,62.81,87,56.58,91.58S44,101.11,37.73,105.87c-9.81,7.46-19.59,14.94-29.5,22.32-2,1.52-3.21,3-2.7,5.25a18,18,0,0,1,.15,3.89c0,16.18-.1,32.35-.12,48.53q0,37.83,0,75.67,0,16.08,0,32.18V304H47.36c0-.82,0-1.46,0-2.1-.09-13.44-.22-26.89-.25-40.34,0-11.74.1-23.49.07-35.24,0-10.59-.23-21.18-.29-31.78-.06-9.55,0-19.1-.07-28.66,0-7.28-.06-14.55,0-21.83a2.51,2.51,0,0,1,.66-1.94c3.87-3,7.87-5.82,11.79-8.74q9.06-6.74,18.08-13.53c5.11-3.84,10.17-7.72,15.28-11.57,4.92-3.71,9.88-7.38,14.82-11.08q9.21-6.9,18.41-13.82,6.95-5.22,13.85-10.47L163.91,54.5l10.76-8.14c10.44,7.84,20.65,15.52,30.88,23.19,4.87,3.65,9.77,7.28,14.65,10.93l33.47,25.06q8,5.94,15.89,11.91c5.27,4,10.48,8,15.77,12s10.68,7.84,15.91,11.85a3.8,3.8,0,0,1,1.41,2.69c.08,6.48,0,13,0,19.45,0,15.65.05,31.31,0,47,0,13.77-.06,27.54-.09,41.31,0,16.9-.05,33.79-.18,50.69,0,1.36.45,1.63,2.09,1.63,7.66,0,15.32.06,23,.08,5.19,0,10.38,0,15.85,0v-2.3c-.07-8.19-.17-16.38-.18-24.57,0-13.45.06-26.9.05-40.35q0-27.8-.12-55.58c0-16.58,0-33.16-.12-49.73a4.33,4.33,0,0,0-1.68-3c-4.12-3.21-8.47-6.25-12.7-9.38-4.78-3.55-9.56-7.11-14.27-10.7-6.15-4.7-12.23-9.45-18.37-14.16-8.16-6.25-16.31-12.53-24.55-18.72-6.84-5.14-13.86-10.13-20.73-15.24-5.31-4-10.47-8-15.75-12-5.52-4.17-11.12-8.27-16.65-12.43-5.71-4.29-11.39-8.61-17.08-12.91-5.38-4.08-10.79-8.13-16.14-12.23C181.64,8.18,178.35,5.5,174.72,2.63Zm-97,301.43H271.5a19.59,19.59,0,0,0,.2-2q0-13.76.05-27.49,0-23.19.05-46.37c0-14.68-.06-29.36,0-44,0-10.47.15-20.94.12-31.4a3.43,3.43,0,0,0-1.38-2.42c-7.08-5.34-14.26-10.6-21.4-15.89-4.79-3.55-9.59-7.09-14.35-10.65q-9-6.76-18-13.57c-4.32-3.28-8.51-6.66-12.86-9.91-6.09-4.54-12.33-9-18.42-13.52-3.6-2.69-7-5.51-10.62-8.33-1.38.93-2.93,1.91-4.35,3-5.62,4.19-11.19,8.42-16.8,12.61s-11.48,8.54-17.21,12.82q-7.59,5.68-15.15,11.41c-5.52,4.17-11,8.36-16.55,12.53-8.6,6.48-17.24,12.93-25.77,19.47A3.74,3.74,0,0,0,77.6,153q-.12,33.06-.07,66.12,0,36.47.14,72.94C77.68,296,77.67,300,77.67,304.06ZM50.56,353.81v26H61.8V327.3c-2,.71-4.1.8-5.1,1.87A94.46,94.46,0,0,0,49.92,338q-6.57,9-13.06,18c-.68.95-1.32,1.93-1.88,2.76L14.82,332.61a56.09,56.09,0,0,0-3.51-4.55c-.62-.66-1.77-.83-2.68-1.22a9.26,9.26,0,0,0-.74,2.52c-.08,10.05-.08,20.09-.1,30.13,0,6.79,0,13.58,0,20.46h9.12c1.37,0,2.41-.33,2.33-2q-.49-11-.93-22.09a13.65,13.65,0,0,1,.34-1.8l16.07,23.14ZM207.4,379.6V354.43c.54-.08.56.19.7.39,4.4,6.33,8.75,12.69,13.23,19,1.72,2.41,2.57,2.35,4.29-.1,1.95-2.78,3.75-5.67,5.63-8.5,2.63-4,5.28-7.95,8.06-12.12v26.38H250c0-16.46,0-32.71,0-48.95,0-.83-.55-2.35-.8-2.34-1.27,0-3,.06-3.7.86-4.7,5.8-9.21,11.76-13.68,17.74-2.8,3.74-5.44,7.59-8.16,11.4-2.27-2.65-4.41-5-6.38-7.48-5.93-7.5-11.78-15.05-17.71-22.54a22.24,22.24,0,0,0-3-2.56v54Zm-72.24-28.4V337.37H137c6.11.05,12.22.12,18.33.1.75,0,2.1-.42,2.16-.8.47-3,.69-6.08,1-9.18-10.94,0-21.24.06-31.53-.05-2.13,0-2.85.42-2.84,2.7q.15,23.72,0,47.42c0,2.3.76,2.77,2.85,2.74,8.47-.12,16.94-.23,25.4-.09,7,.12,7.67-.5,6.13-7.51,0-.17-.16-.35-.14-.5.26-2.28-1.09-2.48-2.89-2.46-6,.08-12,0-18.07.1-1.78,0-2.54-.36-2.36-2.31.19-2.13,0-4.3,0-6.67h19.68V351.2Zm188.72,9.86h18.44c0-2.58-.1-4.94,0-7.27.1-1.84-.44-2.38-2.36-2.33-5.39.16-10.8.06-16.35.06V337.29H345.9v-9.65H312.63a3.18,3.18,0,0,0-.31.87q0,24.9,0,49.8c0,1.71.83,1.94,2.32,1.93,7.86,0,15.72.05,23.58.08h8.11V370.05H323.88Zm6.2,64.71v-5.36h-14.5a14.57,14.57,0,0,0,0-2.56c-.47-2.6.33-3.63,3.15-3.36,3,.29,6,.07,9.07.07-.11-1.82-.19-3.18-.28-4.64H315.85V402.1h13.37v-5.23H310.38v28.9Zm-127,.47c6.27.29,10-2.19,10.9-6.94,1-5.06-1.56-9.11-6.94-11-1.23-.44-2.47-.83-3.7-1.27-1.68-.6-3.07-1.47-2.39-3.58a4,4,0,0,1,4.72-2.19c1.05.38,2,1.4,3,1.42a8.06,8.06,0,0,0,3.55-1.17c.26-.14.35-1.31.07-1.7-2.16-3.09-9.45-4.63-12.73-2.72s-4.42,4.91-4.22,8.43,2.5,5.21,5.53,6.23c2,.67,4.24.93,5.86,2.09a5.37,5.37,0,0,1,1.92,4.3c-.19,1.17-2,2.67-3.37,2.92a6.71,6.71,0,0,1-7.3-2.92,9.42,9.42,0,0,0-2.5-1.86c-.54.95-1.53,1.91-1.51,2.84a6.52,6.52,0,0,0,1.37,3.89A9.17,9.17,0,0,0,203.11,426.24Zm23.29-24.32c0,7,0,13.7,0,20.39,0,3.76.5,4.29,4.15,3.6a2.2,2.2,0,0,0,1.36-1.61q.06-10.2-.15-20.4c0-1.77.4-2.63,2.34-2.43a36.92,36.92,0,0,0,3.95,0v-4.82c-5.34,0-10.46,0-15.59,0s-4.61-.39-4,4.45a5,5,0,0,0,.31.79ZM93.88,326.32h-.74L70.47,380c4,0,7-.06,9.9,0,1.76.05,2.74-.47,3-2.37.27-1.63.81-3.05,3.19-2.93,4.52.23,9.06-.05,13.59.12.93,0,2.52,1,2.62,1.67.46,3.34,2.29,3.95,5.26,3.55a43,43,0,0,1,6,.06c.73,0,1.46-.13,2.37-.22C108.83,361.8,101.35,344.06,93.88,326.32Zm-5.15,39c1.69-4.84,3.32-9.5,5-14.44,1.61,4.94,3.14,9.62,4.72,14.44Zm170.51,30.86c-9.77-.29-16.09,5.79-16.19,15.14-.08,8.34,6.56,14.78,15.29,14.83,8.65.24,16.21-6,16.18-15.06S267.27,396.38,259.24,396.14Zm-.16,25.15c-5.49.07-10.71-4.8-10.56-10.15.16-5.93,4-9.35,10.32-9.87,4.9,0,10.54,5.22,10.52,9.78S263.72,421.23,259.08,421.29Zm42.38-47.59c-6.14-14.95-12.19-29.93-18.32-44.88-.24-.6-.88-1.39-1.41-1.44a2.15,2.15,0,0,0-1.61,1.17Q273.25,344,266.51,359.5c-1.71,3.9-3.37,7.82-5,11.75-1.14,2.68-2.24,5.39-3.58,8.61,3.42,0,6.22-.21,9,.07,2.38.24,3.67-.54,4.15-2.8.35-1.64,1.25-2.12,3-2.06a116.7,116.7,0,0,0,14.12,0c2.79-.24,3.66,1,4.36,3.13.19.61.78,1.55,1.22,1.57,3.42.13,6.86.07,11,.07C303.41,377.43,302.25,375.63,301.46,373.7Zm-26-8.06c1.94-4.66,3.77-9.08,5.76-13.89,1.9,5,3.58,9.35,5.31,13.89Zm21.88,52c.77-1,1.43-1.75,2.05-2.57,5.69-7.57,1.61-17.24-7.77-18.33-2-.24-4-.21-6-.27-5.62-.17-4.62-.22-4.53,4.51,0,.44,0,.88,0,1.31V425.5h6v-6.15c5-.65,5-.65,7.81,3.2s4.27,4.33,8.43,2.92ZM295.91,411c-2,3.6-5.43,3.09-9,3.48V401.41c3.42-.18,6.44.28,8.55,3.25A5.59,5.59,0,0,1,295.91,411Z" transform="translate(-5.41 -2.63)"/><path class="cls-1" d="M174.72,2.63c3.63,2.87,6.92,5.55,10.3,8.15,5.35,4.1,10.76,8.15,16.14,12.23,5.69,4.3,11.37,8.62,17.08,12.91,5.53,4.16,11.13,8.26,16.65,12.43,5.28,4,10.44,8,15.75,12,6.87,5.11,13.89,10.1,20.73,15.24,8.24,6.19,16.39,12.47,24.55,18.72,6.14,4.71,12.22,9.46,18.37,14.16,4.71,3.59,9.49,7.15,14.27,10.7,4.23,3.13,8.58,6.17,12.7,9.38a4.33,4.33,0,0,1,1.68,3c.12,16.57.09,33.15.12,49.73q.06,27.8.12,55.58c0,13.45-.07,26.9-.05,40.35,0,8.19.11,16.38.18,24.57v2.3c-5.47,0-10.66,0-15.85,0-7.66,0-15.32-.11-23-.08-1.64,0-2.09-.27-2.09-1.63.13-16.9.14-33.79.18-50.69,0-13.77.09-27.54.09-41.31,0-15.65,0-31.31,0-47,0-6.48.11-13,0-19.45a3.8,3.8,0,0,0-1.41-2.69c-5.23-4-10.63-7.89-15.91-11.85s-10.5-8-15.77-12-10.59-8-15.89-11.91L220.2,80.48c-4.88-3.65-9.78-7.28-14.65-10.93-10.23-7.67-20.44-15.35-30.88-23.19L163.91,54.5,139.68,72.93q-6.92,5.25-13.85,10.47-9.19,6.93-18.41,13.82c-4.94,3.7-9.9,7.37-14.82,11.08-5.11,3.85-10.17,7.73-15.28,11.57q-9,6.78-18.08,13.53c-3.92,2.92-7.92,5.78-11.79,8.74a2.51,2.51,0,0,0-.66,1.94c0,7.28,0,14.55,0,21.83,0,9.56,0,19.11.07,28.66.06,10.6.26,21.19.29,31.78,0,11.75-.1,23.5-.07,35.24,0,13.45.16,26.9.25,40.34,0,.64,0,1.28,0,2.1H5.47V293.71q0-16.09,0-32.18,0-37.84,0-75.67c0-16.18.09-32.35.12-48.53a18,18,0,0,0-.15-3.89c-.51-2.24.67-3.73,2.7-5.25,9.91-7.38,19.69-14.86,29.5-22.32,6.28-4.76,12.5-9.58,18.85-14.29s12.65-9.09,18.87-13.72c4.35-3.24,8.48-6.66,12.77-10q8.57-6.59,17.23-13.1c5.16-3.88,10.39-7.71,15.56-11.58,5.59-4.2,11.15-8.43,16.73-12.64L153.9,18.36Z" transform="translate(-5.41 -2.63)"/><path class="cls-2" d="M77.67,304.06c0-4.07,0-8,0-12q-.08-36.47-.14-72.94,0-33.06.07-66.12A3.74,3.74,0,0,1,79,150.28c8.53-6.54,17.17-13,25.77-19.47,5.53-4.17,11-8.36,16.55-12.53q7.56-5.72,15.15-11.41c5.73-4.28,11.49-8.54,17.21-12.82s11.18-8.42,16.8-12.61c1.42-1.06,3-2,4.35-3,3.59,2.82,7,5.64,10.62,8.33,6.09,4.55,12.33,9,18.42,13.52,4.35,3.25,8.54,6.63,12.86,9.91q9,6.83,18,13.57c4.76,3.56,9.56,7.1,14.35,10.65,7.14,5.29,14.32,10.55,21.4,15.89a3.43,3.43,0,0,1,1.38,2.42c0,10.46-.11,20.93-.12,31.4,0,14.68,0,29.36,0,44q0,23.18-.05,46.37,0,13.74-.05,27.49a19.59,19.59,0,0,1-.2,2Zm46.19-168.45c-4.48,31.86-8.9,63.36-13.34,95H239.27c0-.48,0-.79-.08-1.1-1.46-9.25-3-18.5-4.37-27.76-.75-4.9-1.32-9.82-2-14.73-2.29-16.52-4.61-33-6.85-49.58-.18-1.37-.87-1.77-2.52-1.75-3.78,0-7.58,0-11.36,0h-7c0-.7,0-1.09,0-1.47-.34-5.05.41-10.11-2.87-15a30,30,0,0,0-16.57-12.12c-11.68-3.67-22.35-2-31.69,4.24-5.75,3.84-8.78,9-9.11,14.91-.17,3-.36,6.07-.56,9.36Z" transform="translate(-5.41 -2.63)"/><path class="cls-1" d="M50.56,353.81,34.72,377.16,18.65,354a13.65,13.65,0,0,0-.34,1.8q.45,11.06.93,22.09c.08,1.71-1,2-2.33,2H7.79c0-6.88,0-13.67,0-20.46,0-10,0-20.08.1-30.13a9.26,9.26,0,0,1,.74-2.52c.91.39,2.06.56,2.68,1.22a56.09,56.09,0,0,1,3.51,4.55L35,358.77c.56-.83,1.2-1.81,1.88-2.76q6.51-9,13.06-18a94.46,94.46,0,0,1,6.78-8.84c1-1.07,3-1.16,5.1-1.87v52.48H50.56Z" transform="translate(-5.41 -2.63)"/><path class="cls-1" d="M207.4,379.6H196.56v-54a22.24,22.24,0,0,1,3,2.56c5.93,7.49,11.78,15,17.71,22.54,2,2.48,4.11,4.83,6.38,7.48,2.72-3.81,5.36-7.66,8.16-11.4,4.47-6,9-11.94,13.68-17.74.65-.8,2.43-.82,3.7-.86.25,0,.8,1.51.8,2.34.05,16.24,0,32.49,0,48.95H239.31V353.06c-2.78,4.17-5.43,8.14-8.06,12.12-1.88,2.83-3.68,5.72-5.63,8.5-1.72,2.45-2.57,2.51-4.29.1-4.48-6.27-8.83-12.63-13.23-19-.14-.2-.16-.47-.7-.39Z" transform="translate(-5.41 -2.63)"/><path class="cls-1" d="M135.16,351.2h19.58v9.66H135.06c0,2.37.15,4.54,0,6.67-.18,2,.58,2.34,2.36,2.31,6-.11,12.05,0,18.07-.1,1.8,0,3.15.18,2.89,2.46,0,.15.1.33.14.5,1.54,7,.9,7.63-6.13,7.51-8.46-.14-16.93,0-25.4.09-2.09,0-2.86-.44-2.85-2.74q.18-23.71,0-47.42c0-2.28.71-2.72,2.84-2.7,10.29.11,20.59.05,31.53.05-.3,3.1-.52,6.16-1,9.18-.06.38-1.41.8-2.16.8-6.11,0-12.22-.05-18.33-.1h-1.86Z" transform="translate(-5.41 -2.63)"/><path class="cls-1" d="M323.88,361.06v9h22.41v10.27h-8.11c-7.86,0-15.72-.11-23.58-.08-1.49,0-2.32-.22-2.32-1.93q0-24.9,0-49.8a3.18,3.18,0,0,1,.31-.87H345.9v9.65H323.65v14.23c5.55,0,11,.1,16.35-.06,1.92,0,2.46.49,2.36,2.33-.14,2.33,0,4.69,0,7.27Z" transform="translate(-5.41 -2.63)"/><path class="cls-1" d="M301.46,373.7c-6.14-14.95-12.19-29.93-18.32-44.88-.24-.6-.88-1.39-1.41-1.44a2.15,2.15,0,0,0-1.61,1.17Q273.25,344,266.51,359.5c-1.71,3.9-3.37,7.82-5,11.75-1.14,2.68-2.24,5.39-3.58,8.61,3.42,0,6.22-.21,9,.07,2.38.24,3.67-.54,4.15-2.8.35-1.64,1.25-2.12,3-2.06a116.7,116.7,0,0,0,14.12,0c2.79-.24,3.66,1,4.36,3.13.19.61.78,1.55,1.22,1.57,3.42.13,6.86.07,11,.07C303.41,377.43,302.25,375.63,301.46,373.7Zm-26-8.06c1.94-4.66,3.77-9.08,5.76-13.89,1.9,5,3.58,9.35,5.31,13.89Z" transform="translate(-5.41 -2.63)"/><path class="cls-1" d="M93.88,326.32h-.74L70.47,380c4,0,7-.06,9.9,0,1.76.05,2.74-.47,3-2.37.27-1.63.81-3.05,3.19-2.93,4.52.23,9.06-.05,13.59.12.93,0,2.52,1,2.62,1.67.46,3.34,2.29,3.95,5.26,3.55a43,43,0,0,1,6,.06c.73,0,1.46-.13,2.37-.22C108.83,361.8,101.35,344.06,93.88,326.32Zm-5.15,39c1.69-4.84,3.32-9.5,5-14.44,1.61,4.94,3.14,9.62,4.72,14.44Z" transform="translate(-5.41 -2.63)"/><path class="cls-1" d="M259.24,396.14c-9.77-.29-16.09,5.79-16.19,15.14-.08,8.34,6.56,14.78,15.29,14.83,8.65.24,16.21-6,16.18-15.06S267.27,396.38,259.24,396.14Zm-.16,25.15c-5.49.07-10.71-4.8-10.56-10.15.16-5.93,4-9.35,10.32-9.87,4.9,0,10.54,5.22,10.52,9.78S263.72,421.23,259.08,421.29Z" transform="translate(-5.41 -2.63)"/><path class="cls-1" d="M297.36,417.6c.77-1,1.43-1.75,2.05-2.57,5.69-7.57,1.61-17.24-7.77-18.33-2-.24-4-.21-6-.27-5.62-.17-4.62-.22-4.53,4.51,0,.44,0,.88,0,1.31V425.5h6v-6.15c5-.65,5-.65,7.81,3.2s4.27,4.33,8.43,2.92ZM295.91,411c-2,3.6-5.43,3.09-9,3.48V401.41c3.42-.18,6.44.28,8.55,3.25A5.59,5.59,0,0,1,295.91,411Z" transform="translate(-5.41 -2.63)"/><path class="cls-1" d="M330.08,425.77h-19.7v-28.9h18.84v5.23H315.85v7.82H327.5c.09,1.46.17,2.82.28,4.64-3.06,0-6.09.22-9.07-.07-2.82-.27-3.62.76-3.15,3.36a14.57,14.57,0,0,1,0,2.56h14.5Z" transform="translate(-5.41 -2.63)"/><path class="cls-1" d="M203.11,426.24a9.17,9.17,0,0,1-7.72-3.25A6.52,6.52,0,0,1,194,419.1c0-.93,1-1.89,1.51-2.84a9.42,9.42,0,0,1,2.5,1.86,6.71,6.71,0,0,0,7.3,2.92c1.33-.25,3.18-1.75,3.37-2.92a5.37,5.37,0,0,0-1.92-4.3c-1.62-1.16-3.88-1.42-5.86-2.09-3-1-5.33-2.85-5.53-6.23s1-6.56,4.22-8.43,10.57-.37,12.73,2.72c.28.39.19,1.56-.07,1.7a8.06,8.06,0,0,1-3.55,1.17c-1,0-2-1-3-1.42a4,4,0,0,0-4.72,2.19c-.68,2.11.71,3,2.39,3.58,1.23.44,2.47.83,3.7,1.27,5.38,1.91,7.93,6,6.94,11C213.1,424.05,209.38,426.53,203.11,426.24Z" transform="translate(-5.41 -2.63)"/><path class="cls-1" d="M226.4,401.92h-7.6a5,5,0,0,1-.31-.79c-.65-4.84-1.18-4.48,4-4.45s10.25,0,15.59,0v4.82a36.92,36.92,0,0,1-3.95,0c-1.94-.2-2.38.66-2.34,2.43q.21,10.2.15,20.4a2.2,2.2,0,0,1-1.36,1.61c-3.65.69-4.16.16-4.15-3.6C226.41,415.62,226.4,408.92,226.4,401.92Z" transform="translate(-5.41 -2.63)"/><path class="cls-3" d="M123.86,135.61H144.3c.2-3.29.39-6.33.56-9.36.33-6,3.36-11.07,9.11-14.91,9.34-6.22,20-7.91,31.69-4.24a30,30,0,0,1,16.57,12.12c3.28,4.85,2.53,9.91,2.87,15,0,.38,0,.77,0,1.47h7c3.78,0,7.58,0,11.36,0,1.65,0,2.34.38,2.52,1.75,2.24,16.53,4.56,33.06,6.85,49.58.68,4.91,1.25,9.83,2,14.73,1.4,9.26,2.91,18.51,4.37,27.76,0,.31,0,.62.08,1.1H110.52C115,199,119.38,167.47,123.86,135.61Zm28.5-.07h43.41c0-3.23.34-6.35-.08-9.4-.75-5.43-4.4-9.49-10.6-12.28-11.91-5.34-26.4-1-31.06,9.52C152.37,127.12,152.86,131.42,152.36,135.54Zm58.53,23.12v60.1c2.84,0,5.44,0,8,0,1.23,0,1.73-.24,1.73-1.34q-.21-28.56-.3-57.12a12.82,12.82,0,0,0-.2-1.65Zm-81.48.09V219c2.28,0,4.39-.14,6.46,0s2.71-.38,2.7-2c-.07-15.91,0-31.83,0-47.74V158.75Zm58.4-.14c-2.46,0-4.8.11-7.12,0-2-.12-2.43.44-2.41,1.88.09,6.24.05,12.49.06,18.73,0,8.06,0,16.12.1,24.19,0,.61.5,1.74.85,1.76,2.81.14,5.63.08,8.52.08Zm7.08,46.82c1.93,0,3.51,0,5.1,0,5.59.06,4.4.57,4.43-3.46.11-11.62-.07-23.24-.13-34.87,0-2.77,0-5.53,0-8.3h-9.4ZM171,205.12V158.84H161.7v46.28Zm-25.56,0c1.55,0,3.14,0,4.73,0,4-.06,4-.07,4-3.17,0-12.75,0-25.49,0-38.24,0-5.3,0-5.26-6.81-5-1.58.05-2,.54-2,1.67C145.43,175.23,145.42,190.11,145.42,205.14Z" transform="translate(-5.41 -2.63)"/><path class="cls-2" d="M152.36,135.54c.5-4.12,0-8.42,1.67-12.16,4.66-10.53,19.15-14.86,31.06-9.52,6.2,2.79,9.85,6.85,10.6,12.28.42,3,.08,6.17.08,9.4Z" transform="translate(-5.41 -2.63)"/><path class="cls-2" d="M210.89,158.66h9.26a12.82,12.82,0,0,1,.2,1.65q.14,28.56.3,57.12c0,1.1-.5,1.35-1.73,1.34-2.59,0-5.19,0-8,0Z" transform="translate(-5.41 -2.63)"/><path class="cls-2" d="M129.41,158.75h9.13v10.53c0,15.91,0,31.83,0,47.74,0,1.64-.54,2.2-2.7,2s-4.18,0-6.46,0Z" transform="translate(-5.41 -2.63)"/><path class="cls-2" d="M187.81,158.61v46.61c-2.89,0-5.71.06-8.52-.08-.35,0-.85-1.15-.85-1.76-.08-8.07-.08-16.13-.1-24.19,0-6.24,0-12.49-.06-18.73,0-1.44.44-2,2.41-1.88C183,158.72,185.35,158.61,187.81,158.61Z" transform="translate(-5.41 -2.63)"/><path class="cls-2" d="M194.89,205.43V158.8h9.4c0,2.77,0,5.53,0,8.3.06,11.63.24,23.25.13,34.87,0,4,1.16,3.52-4.43,3.46C198.4,205.41,196.82,205.43,194.89,205.43Z" transform="translate(-5.41 -2.63)"/><path class="cls-2" d="M171,205.12H161.7V158.84H171Z" transform="translate(-5.41 -2.63)"/><path class="cls-2" d="M145.42,205.14c0-15,0-29.91,0-44.78,0-1.13.4-1.62,2-1.67,6.85-.23,6.82-.27,6.81,5,0,12.75,0,25.49,0,38.24,0,3.1,0,3.11-4,3.17C148.56,205.16,147,205.14,145.42,205.14Z" transform="translate(-5.41 -2.63)"/><ellipse class="cls-3" cx="217.87" cy="266.62" rx="18.38" ry="16.31"/></svg>